<svg xmlns="http://www.w3.org/2000/svg" viewBox="0 0 1200 420"><defs><linearGradient id="bg" x2="1" y2="1"><stop stop-color="#eee2ff"/><stop offset="1" stop-color="#fff1cf"/></linearGradient><linearGradient id="gold" x2="0" y2="1"><stop stop-color="#ffdc74"/><stop offset="1" stop-color="#e7a92f"/></linearGradient></defs><rect width="1200" height="420" fill="url(#bg)"/><circle cx="1080" cy="90" r="220" fill="#fff" opacity=".3"/><g font-family="Inter,Arial,sans-serif" fill="#342447"><text x="70" y="91" font-size="21" font-weight="800" letter-spacing="4">TEACHERTILES MEMBERSHIP</text><text x="67" y="172" font-size="62" font-weight="900">More room to create.</text><text x="70" y="221" font-size="23">All paid cosmetics. Up to 20 saved boards.</text><text x="70" y="260" font-size="23">500 coins every month to keep your favorites.</text><rect x="70" y="297" width="230" height="55" rx="27" fill="#63418d"/><text x="185" y="333" text-anchor="middle" font-size="24" font-weight="800" fill="white">$5.99 / month</text></g><g transform="translate(865 85)"><circle cx="120" cy="120" r="130" fill="white" opacity=".7"/><g transform="scale(5)"><path d="m7.5 15 10.1 7.1L24 9l6.4 13.1L40.5 15l-4.2 22H11.7L7.5 15Z" fill="#f2c55f" stroke="#a87523" stroke-width="2" stroke-linejoin="round"/><path d="M14 31.5h20" fill="none" stroke="#fff0b1" stroke-width="2.5" stroke-linecap="round"/></g><path d="m20 20 5 13 13 5-13 5-5 13-5-13-13-5 13-5Z" fill="#c29aee"/><path d="m231 235 5 13 13 5-13 5-5 13-5-13-13-5 13-5Z" fill="#c29aee"/></g></svg>