<svg xmlns="http://www.w3.org/2000/svg" width="600" height="400" viewBox="0 0 600 400"><defs><linearGradient id="sea" x2="0" y2="1"><stop stop-color="#3babc1"/><stop offset=".45" stop-color="#126781"/><stop offset="1" stop-color="#092f42"/></linearGradient><linearGradient id="ray" x2="0" y2="1"><stop stop-color="#d7fff8" stop-opacity=".2"/><stop offset="1" stop-color="#d7fff8" stop-opacity="0"/></linearGradient></defs><path fill="url(#sea)" d="M0 0h600v400H0z"/><path fill="url(#ray)" d="M0 0h22l100 400h-85z"/><path fill="url(#ray)" d="M110 0h22l100 400h-85z"/><path fill="url(#ray)" d="M220 0h22l100 400h-85z"/><path fill="url(#ray)" d="M330 0h22l100 400h-85z"/><path fill="url(#ray)" d="M440 0h22l100 400h-85z"/><path fill="url(#ray)" d="M550 0h22l100 400h-85z"/><path d="M0 368Q180 330 300 368T600 358V400H0" fill="#184b58"/><path d="M0 410Q-24 379 12 365" stroke="#348180" stroke-width="8" fill="none" stroke-linecap="round"/><path d="M12 410Q-12 354.4 24 324" stroke="#4b9394" stroke-width="8" fill="none" stroke-linecap="round"/><path d="M24 410Q0 329.8 36 283" stroke="#28646d" stroke-width="8" fill="none" stroke-linecap="round"/><path d="M36 410Q12 368.2 48 347" stroke="#348180" stroke-width="8" fill="none" stroke-linecap="round"/><path d="M48 410Q24 343.6 60 306" stroke="#4b9394" stroke-width="8" fill="none" stroke-linecap="round"/><path d="M60 410Q36 319 72 265" stroke="#28646d" stroke-width="8" fill="none" stroke-linecap="round"/><path d="M72 410Q48 357.4 84 329" stroke="#348180" stroke-width="8" fill="none" stroke-linecap="round"/><path d="M84 410Q60 332.8 96 288" stroke="#4b9394" stroke-width="8" fill="none" stroke-linecap="round"/><path d="M96 410Q72 371.2 108 352" stroke="#28646d" stroke-width="8" fill="none" stroke-linecap="round"/><path d="M490 410Q466 346.6 502 311" stroke="#348180" stroke-width="8" fill="none" stroke-linecap="round"/><path d="M503 410Q479 322 515 270" stroke="#4b9394" stroke-width="8" fill="none" stroke-linecap="round"/><path d="M516 410Q492 360.4 528 334" stroke="#28646d" stroke-width="8" fill="none" stroke-linecap="round"/><path d="M529 410Q505 335.8 541 293" stroke="#348180" stroke-width="8" fill="none" stroke-linecap="round"/><path d="M542 410Q518 374.2 554 357" stroke="#4b9394" stroke-width="8" fill="none" stroke-linecap="round"/><path d="M555 410Q531 349.6 567 316" stroke="#28646d" stroke-width="8" fill="none" stroke-linecap="round"/><path d="M568 410Q544 325 580 275" stroke="#348180" stroke-width="8" fill="none" stroke-linecap="round"/><path d="M581 410Q557 363.4 593 339" stroke="#4b9394" stroke-width="8" fill="none" stroke-linecap="round"/><path d="M594 410Q570 338.8 606 298" stroke="#28646d" stroke-width="8" fill="none" stroke-linecap="round"/><path d="M35 400v-44m0 20-17-24m17 5 19-25m-19 5-12-18" stroke="#a57688" stroke-width="6" stroke-linecap="round" fill="none"/><path d="M158 400v-44m0 20-17-24m17 5 19-25m-19 5-12-18" stroke="#a57688" stroke-width="6" stroke-linecap="round" fill="none"/><path d="M281 400v-44m0 20-17-24m17 5 19-25m-19 5-12-18" stroke="#a57688" stroke-width="6" stroke-linecap="round" fill="none"/><path d="M404 400v-44m0 20-17-24m17 5 19-25m-19 5-12-18" stroke="#a57688" stroke-width="6" stroke-linecap="round" fill="none"/><path d="M527 400v-44m0 20-17-24m17 5 19-25m-19 5-12-18" stroke="#a57688" stroke-width="6" stroke-linecap="round" fill="none"/><circle cx="0" cy="0" r="2" fill="none" stroke="#ddfff6" stroke-opacity=".45"/><circle cx="137" cy="73" r="3" fill="none" stroke="#ddfff6" stroke-opacity=".45"/><circle cx="274" cy="146" r="4" fill="none" stroke="#ddfff6" stroke-opacity=".45"/><circle cx="411" cy="219" r="5" fill="none" stroke="#ddfff6" stroke-opacity=".45"/><circle cx="548" cy="292" r="6" fill="none" stroke="#ddfff6" stroke-opacity=".45"/><circle cx="85" cy="365" r="2" fill="none" stroke="#ddfff6" stroke-opacity=".45"/><circle cx="222" cy="63" r="3" fill="none" stroke="#ddfff6" stroke-opacity=".45"/><circle cx="359" cy="136" r="4" fill="none" stroke="#ddfff6" stroke-opacity=".45"/><circle cx="496" cy="209" r="5" fill="none" stroke="#ddfff6" stroke-opacity=".45"/><circle cx="33" cy="282" r="6" fill="none" stroke="#ddfff6" stroke-opacity=".45"/><circle cx="170" cy="355" r="2" fill="none" stroke="#ddfff6" stroke-opacity=".45"/><circle cx="307" cy="53" r="3" fill="none" stroke="#ddfff6" stroke-opacity=".45"/><circle cx="444" cy="126" r="4" fill="none" stroke="#ddfff6" stroke-opacity=".45"/><circle cx="581" cy="199" r="5" fill="none" stroke="#ddfff6" stroke-opacity=".45"/><circle cx="118" cy="272" r="6" fill="none" stroke="#ddfff6" stroke-opacity=".45"/><circle cx="255" cy="345" r="2" fill="none" stroke="#ddfff6" stroke-opacity=".45"/><circle cx="392" cy="43" r="3" fill="none" stroke="#ddfff6" stroke-opacity=".45"/><circle cx="529" cy="116" r="4" fill="none" stroke="#ddfff6" stroke-opacity=".45"/><circle cx="66" cy="189" r="5" fill="none" stroke="#ddfff6" stroke-opacity=".45"/><circle cx="203" cy="262" r="6" fill="none" stroke="#ddfff6" stroke-opacity=".45"/><circle cx="340" cy="335" r="2" fill="none" stroke="#ddfff6" stroke-opacity=".45"/><circle cx="477" cy="33" r="3" fill="none" stroke="#ddfff6" stroke-opacity=".45"/><circle cx="14" cy="106" r="4" fill="none" stroke="#ddfff6" stroke-opacity=".45"/><circle cx="151" cy="179" r="5" fill="none" stroke="#ddfff6" stroke-opacity=".45"/></svg>