<svg xmlns="http://www.w3.org/2000/svg" viewBox="0 0 360 620"><defs><radialGradient id="ball0" cx=".3" cy=".22" r=".85"><stop stop-color="#fff89e"/><stop offset=".34" stop-color="#f5db10"/><stop offset=".78" stop-color="#f5db10"/><stop offset="1" stop-color="#bc8500"/></radialGradient><radialGradient id="ball1" cx=".3" cy=".22" r=".85"><stop stop-color="#ff929e"/><stop offset=".34" stop-color="#e9183c"/><stop offset=".78" stop-color="#e9183c"/><stop offset="1" stop-color="#85092a"/></radialGradient><radialGradient id="ball2" cx=".3" cy=".22" r=".85"><stop stop-color="#7af1ab"/><stop offset=".34" stop-color="#0eb361"/><stop offset=".78" stop-color="#0eb361"/><stop offset="1" stop-color="#006835"/></radialGradient><radialGradient id="ball3" cx=".3" cy=".22" r=".85"><stop stop-color="#82e4ff"/><stop offset=".34" stop-color="#059fdb"/><stop offset=".78" stop-color="#059fdb"/><stop offset="1" stop-color="#005185"/></radialGradient><radialGradient id="ball4" cx=".3" cy=".22" r=".85"><stop stop-color="#d3b0f7"/><stop offset=".34" stop-color="#6941bd"/><stop offset=".78" stop-color="#6941bd"/><stop offset="1" stop-color="#351a6e"/></radialGradient><radialGradient id="ball5" cx=".3" cy=".22" r=".85"><stop stop-color="#fffefa"/><stop offset=".34" stop-color="#e7e6dc"/><stop offset=".78" stop-color="#e7e6dc"/><stop offset="1" stop-color="#a8a7aa"/></radialGradient><radialGradient id="ball6" cx=".3" cy=".22" r=".85"><stop stop-color="#ffc982"/><stop offset=".34" stop-color="#f28c19"/><stop offset=".78" stop-color="#f28c19"/><stop offset="1" stop-color="#ac4806"/></radialGradient><radialGradient id="ball7" cx=".3" cy=".22" r=".85"><stop stop-color="#ffb4e1"/><stop offset=".34" stop-color="#ee499d"/><stop offset=".78" stop-color="#ee499d"/><stop offset="1" stop-color="#99255e"/></radialGradient>
<linearGradient id="red"><stop stop-color="#870817"/><stop offset=".12" stop-color="#db1425"/><stop offset=".31" stop-color="#ff3c44"/><stop offset=".48" stop-color="#de1226"/><stop offset=".8" stop-color="#b7091c"/><stop offset="1" stop-color="#730918"/></linearGradient>
<linearGradient id="chrome"><stop stop-color="#525b69"/><stop offset=".17" stop-color="#eaf0f5"/><stop offset=".35" stop-color="#aeb6c1"/><stop offset=".53" stop-color="#f7f9fc"/><stop offset=".7" stop-color="#949fab"/><stop offset="1" stop-color="#444e5f"/></linearGradient>
<linearGradient id="plate" x2=".7" y2="1"><stop stop-color="#cdd5df"/><stop offset=".42" stop-color="#929ba8"/><stop offset=".5" stop-color="#d8dfe7"/><stop offset="1" stop-color="#5c6675"/></linearGradient>
<radialGradient id="glass" cx=".34" cy=".3"><stop stop-color="#eefaff" stop-opacity=".04"/><stop offset=".7" stop-color="#dfeeff" stop-opacity=".08"/><stop offset=".93" stop-color="#4f6f91" stop-opacity=".2"/><stop offset="1" stop-color="#e4f1ff" stop-opacity=".65"/></radialGradient>
<clipPath id="globe"><path d="M76 58Q180 23 284 58C325 95 344 173 324 249Q309 314 274 353Q180 382 86 353C51 314 36 249 31 200Q20 119 76 58Z"/></clipPath>
</defs><ellipse cx="180" cy="599" rx="141" ry="12" fill="#27334819"/>
<path d="M85 350H275L329 556Q336 590 180 598Q24 590 31 556Z" fill="url(#red)" stroke="#850d22" stroke-width="2"/>
<path d="M89 374 49 543Q47 553 58 555L99 390Z" fill="#ff9c9f" opacity=".24"/>
<path d="M33 552Q180 605 327 552L325 576Q180 616 35 576Z" fill="url(#red)" stroke="#790b1c" stroke-width="1.5"/>
<path d="M76 58Q180 23 284 58C325 95 344 173 324 249Q309 314 274 353Q180 382 86 353C51 314 36 249 31 200Q20 119 76 58Z" fill="#e6f1f6" stroke="#a8bac8" stroke-width="2"/>
<g clip-path="url(#globe)"><path d="M21 43H339V377H21Z" fill="#9eafbc"/><g><circle cx="125.1" cy="63.9" r="16.7" fill="url(#ball6)" stroke="#00000022" stroke-width=".8"/><ellipse cx="119.7" cy="56.9" rx="4.4" ry="2.2" fill="#fff" opacity=".63" transform="rotate(-25 125.1 63.9)"/></g><g><circle cx="152.8" cy="68.0" r="14.6" fill="url(#ball2)" stroke="#00000022" stroke-width=".8"/><ellipse cx="148.2" cy="61.9" rx="3.8" ry="1.9" fill="#fff" opacity=".63" transform="rotate(-25 152.8 68.0)"/></g><g><circle cx="179.7" cy="63.5" r="15.0" fill="url(#ball5)" stroke="#00000022" stroke-width=".8"/><ellipse cx="175.0" cy="57.2" rx="3.9" ry="1.9" fill="#fff" opacity=".63" transform="rotate(-25 179.7 63.5)"/></g><g><circle cx="212.6" cy="63.5" r="16.9" fill="url(#ball0)" stroke="#00000022" stroke-width=".8"/><ellipse cx="207.2" cy="56.4" rx="4.4" ry="2.2" fill="#fff" opacity=".63" transform="rotate(-25 212.6 63.5)"/></g><g><circle cx="238.5" cy="67.2" r="14.1" fill="url(#ball5)" stroke="#00000022" stroke-width=".8"/><ellipse cx="233.9" cy="61.3" rx="3.7" ry="1.8" fill="#fff" opacity=".63" transform="rotate(-25 238.5 67.2)"/></g><g><circle cx="78.8" cy="97.8" r="16.9" fill="url(#ball4)" stroke="#00000022" stroke-width=".8"/><ellipse cx="73.4" cy="90.7" rx="4.4" ry="2.2" fill="#fff" opacity=".63" transform="rotate(-25 78.8 97.8)"/></g><g><circle cx="106.3" cy="96.8" r="15.1" fill="url(#ball1)" stroke="#00000022" stroke-width=".8"/><ellipse cx="101.5" cy="90.5" rx="3.9" ry="2.0" fill="#fff" opacity=".63" transform="rotate(-25 106.3 96.8)"/></g><g><circle cx="138.6" cy="96.2" r="16.9" fill="url(#ball0)" stroke="#00000022" stroke-width=".8"/><ellipse cx="133.2" cy="89.1" rx="4.4" ry="2.2" fill="#fff" opacity=".63" transform="rotate(-25 138.6 96.2)"/></g><g><circle cx="166.4" cy="96.0" r="15.2" fill="url(#ball0)" stroke="#00000022" stroke-width=".8"/><ellipse cx="161.5" cy="89.6" rx="4.0" ry="2.0" fill="#fff" opacity=".63" transform="rotate(-25 166.4 96.0)"/></g><g><circle cx="194.8" cy="97.2" r="16.4" fill="url(#ball1)" stroke="#00000022" stroke-width=".8"/><ellipse cx="189.6" cy="90.3" rx="4.3" ry="2.1" fill="#fff" opacity=".63" transform="rotate(-25 194.8 97.2)"/></g><g><circle cx="226.2" cy="94.8" r="16.9" fill="url(#ball1)" stroke="#00000022" stroke-width=".8"/><ellipse cx="220.8" cy="87.7" rx="4.4" ry="2.2" fill="#fff" opacity=".63" transform="rotate(-25 226.2 94.8)"/></g><g><circle cx="254.1" cy="96.4" r="15.5" fill="url(#ball1)" stroke="#00000022" stroke-width=".8"/><ellipse cx="249.2" cy="89.9" rx="4.0" ry="2.0" fill="#fff" opacity=".63" transform="rotate(-25 254.1 96.4)"/></g><g><circle cx="66.0" cy="123.2" r="17.0" fill="url(#ball3)" stroke="#00000022" stroke-width=".8"/><ellipse cx="60.6" cy="116.1" rx="4.4" ry="2.2" fill="#fff" opacity=".63" transform="rotate(-25 66.0 123.2)"/></g><g><circle cx="96.0" cy="121.5" r="15.2" fill="url(#ball5)" stroke="#00000022" stroke-width=".8"/><ellipse cx="91.1" cy="115.1" rx="3.9" ry="2.0" fill="#fff" opacity=".63" transform="rotate(-25 96.0 121.5)"/></g><g><circle cx="122.1" cy="123.6" r="15.3" fill="url(#ball2)" stroke="#00000022" stroke-width=".8"/><ellipse cx="117.2" cy="117.1" rx="4.0" ry="2.0" fill="#fff" opacity=".63" transform="rotate(-25 122.1 123.6)"/></g><g><circle cx="153.8" cy="123.1" r="16.9" fill="url(#ball2)" stroke="#00000022" stroke-width=".8"/><ellipse cx="148.4" cy="116.0" rx="4.4" ry="2.2" fill="#fff" opacity=".63" transform="rotate(-25 153.8 123.1)"/></g><g><circle cx="180.2" cy="123.8" r="16.3" fill="url(#ball6)" stroke="#00000022" stroke-width=".8"/><ellipse cx="175.0" cy="116.9" rx="4.2" ry="2.1" fill="#fff" opacity=".63" transform="rotate(-25 180.2 123.8)"/></g><g><circle cx="213.5" cy="121.5" r="16.1" fill="url(#ball5)" stroke="#00000022" stroke-width=".8"/><ellipse cx="208.3" cy="114.8" rx="4.2" ry="2.1" fill="#fff" opacity=".63" transform="rotate(-25 213.5 121.5)"/></g><g><circle cx="240.9" cy="122.7" r="14.4" fill="url(#ball5)" stroke="#00000022" stroke-width=".8"/><ellipse cx="236.3" cy="116.7" rx="3.7" ry="1.9" fill="#fff" opacity=".63" transform="rotate(-25 240.9 122.7)"/></g><g><circle cx="267.1" cy="126.5" r="16.4" fill="url(#ball6)" stroke="#00000022" stroke-width=".8"/><ellipse cx="261.9" cy="119.6" rx="4.3" ry="2.1" fill="#fff" opacity=".63" transform="rotate(-25 267.1 126.5)"/></g><g><circle cx="298.5" cy="126.6" r="16.8" fill="url(#ball1)" stroke="#00000022" stroke-width=".8"/><ellipse cx="293.2" cy="119.6" rx="4.4" ry="2.2" fill="#fff" opacity=".63" transform="rotate(-25 298.5 126.6)"/></g><g><circle cx="49.2" cy="155.8" r="15.1" fill="url(#ball0)" stroke="#00000022" stroke-width=".8"/><ellipse cx="44.4" cy="149.5" rx="3.9" ry="2.0" fill="#fff" opacity=".63" transform="rotate(-25 49.2 155.8)"/></g><g><circle cx="80.7" cy="154.1" r="16.5" fill="url(#ball2)" stroke="#00000022" stroke-width=".8"/><ellipse cx="75.4" cy="147.2" rx="4.3" ry="2.1" fill="#fff" opacity=".63" transform="rotate(-25 80.7 154.1)"/></g><g><circle cx="107.7" cy="152.0" r="17.0" fill="url(#ball4)" stroke="#00000022" stroke-width=".8"/><ellipse cx="102.3" cy="144.9" rx="4.4" ry="2.2" fill="#fff" opacity=".63" transform="rotate(-25 107.7 152.0)"/></g><g><circle cx="137.6" cy="151.7" r="15.2" fill="url(#ball6)" stroke="#00000022" stroke-width=".8"/><ellipse cx="132.7" cy="145.3" rx="3.9" ry="2.0" fill="#fff" opacity=".63" transform="rotate(-25 137.6 151.7)"/></g><g><circle cx="165.4" cy="150.2" r="14.3" fill="url(#ball3)" stroke="#00000022" stroke-width=".8"/><ellipse cx="160.8" cy="144.2" rx="3.7" ry="1.9" fill="#fff" opacity=".63" transform="rotate(-25 165.4 150.2)"/></g><g><circle cx="195.7" cy="155.3" r="14.0" fill="url(#ball4)" stroke="#00000022" stroke-width=".8"/><ellipse cx="191.2" cy="149.4" rx="3.6" ry="1.8" fill="#fff" opacity=".63" transform="rotate(-25 195.7 155.3)"/></g><g><circle cx="226.4" cy="155.3" r="16.9" fill="url(#ball0)" stroke="#00000022" stroke-width=".8"/><ellipse cx="221.0" cy="148.2" rx="4.4" ry="2.2" fill="#fff" opacity=".63" transform="rotate(-25 226.4 155.3)"/></g><g><circle cx="256.0" cy="155.7" r="15.4" fill="url(#ball1)" stroke="#00000022" stroke-width=".8"/><ellipse cx="251.1" cy="149.2" rx="4.0" ry="2.0" fill="#fff" opacity=".63" transform="rotate(-25 256.0 155.7)"/></g><g><circle cx="280.4" cy="151.5" r="16.8" fill="url(#ball6)" stroke="#00000022" stroke-width=".8"/><ellipse cx="275.0" cy="144.4" rx="4.4" ry="2.2" fill="#fff" opacity=".63" transform="rotate(-25 280.4 151.5)"/></g><g><circle cx="63.7" cy="184.3" r="15.5" fill="url(#ball7)" stroke="#00000022" stroke-width=".8"/><ellipse cx="58.7" cy="177.8" rx="4.0" ry="2.0" fill="#fff" opacity=".63" transform="rotate(-25 63.7 184.3)"/></g><g><circle cx="94.1" cy="183.6" r="14.6" fill="url(#ball4)" stroke="#00000022" stroke-width=".8"/><ellipse cx="89.4" cy="177.4" rx="3.8" ry="1.9" fill="#fff" opacity=".63" transform="rotate(-25 94.1 183.6)"/></g><g><circle cx="126.0" cy="182.2" r="14.7" fill="url(#ball0)" stroke="#00000022" stroke-width=".8"/><ellipse cx="121.3" cy="176.0" rx="3.8" ry="1.9" fill="#fff" opacity=".63" transform="rotate(-25 126.0 182.2)"/></g><g><circle cx="155.7" cy="180.2" r="15.0" fill="url(#ball0)" stroke="#00000022" stroke-width=".8"/><ellipse cx="150.9" cy="173.9" rx="3.9" ry="2.0" fill="#fff" opacity=".63" transform="rotate(-25 155.7 180.2)"/></g><g><circle cx="181.7" cy="179.5" r="14.7" fill="url(#ball6)" stroke="#00000022" stroke-width=".8"/><ellipse cx="176.9" cy="173.3" rx="3.8" ry="1.9" fill="#fff" opacity=".63" transform="rotate(-25 181.7 179.5)"/></g><g><circle cx="211.0" cy="184.5" r="16.7" fill="url(#ball1)" stroke="#00000022" stroke-width=".8"/><ellipse cx="205.6" cy="177.5" rx="4.4" ry="2.2" fill="#fff" opacity=".63" transform="rotate(-25 211.0 184.5)"/></g><g><circle cx="237.6" cy="180.7" r="15.2" fill="url(#ball3)" stroke="#00000022" stroke-width=".8"/><ellipse cx="232.7" cy="174.3" rx="4.0" ry="2.0" fill="#fff" opacity=".63" transform="rotate(-25 237.6 180.7)"/></g><g><circle cx="271.6" cy="180.6" r="16.7" fill="url(#ball0)" stroke="#00000022" stroke-width=".8"/><ellipse cx="266.3" cy="173.6" rx="4.3" ry="2.2" fill="#fff" opacity=".63" transform="rotate(-25 271.6 180.6)"/></g><g><circle cx="300.0" cy="184.0" r="16.9" fill="url(#ball7)" stroke="#00000022" stroke-width=".8"/><ellipse cx="294.6" cy="176.9" rx="4.4" ry="2.2" fill="#fff" opacity=".63" transform="rotate(-25 300.0 184.0)"/></g><g><circle cx="49.7" cy="211.5" r="14.1" fill="url(#ball6)" stroke="#00000022" stroke-width=".8"/><ellipse cx="45.2" cy="205.6" rx="3.7" ry="1.8" fill="#fff" opacity=".63" transform="rotate(-25 49.7 211.5)"/></g><g><circle cx="78.8" cy="212.2" r="14.2" fill="url(#ball3)" stroke="#00000022" stroke-width=".8"/><ellipse cx="74.2" cy="206.2" rx="3.7" ry="1.8" fill="#fff" opacity=".63" transform="rotate(-25 78.8 212.2)"/></g><g><circle cx="109.0" cy="212.1" r="16.0" fill="url(#ball7)" stroke="#00000022" stroke-width=".8"/><ellipse cx="103.9" cy="205.3" rx="4.2" ry="2.1" fill="#fff" opacity=".63" transform="rotate(-25 109.0 212.1)"/></g><g><circle cx="140.1" cy="213.6" r="14.0" fill="url(#ball1)" stroke="#00000022" stroke-width=".8"/><ellipse cx="135.6" cy="207.7" rx="3.6" ry="1.8" fill="#fff" opacity=".63" transform="rotate(-25 140.1 213.6)"/></g><g><circle cx="166.3" cy="209.2" r="15.2" fill="url(#ball2)" stroke="#00000022" stroke-width=".8"/><ellipse cx="161.5" cy="202.8" rx="3.9" ry="2.0" fill="#fff" opacity=".63" transform="rotate(-25 166.3 209.2)"/></g><g><circle cx="193.4" cy="213.5" r="15.5" fill="url(#ball6)" stroke="#00000022" stroke-width=".8"/><ellipse cx="188.4" cy="207.0" rx="4.0" ry="2.0" fill="#fff" opacity=".63" transform="rotate(-25 193.4 213.5)"/></g><g><circle cx="226.5" cy="208.1" r="16.7" fill="url(#ball0)" stroke="#00000022" stroke-width=".8"/><ellipse cx="221.2" cy="201.1" rx="4.3" ry="2.2" fill="#fff" opacity=".63" transform="rotate(-25 226.5 208.1)"/></g><g><circle cx="255.3" cy="213.2" r="16.9" fill="url(#ball4)" stroke="#00000022" stroke-width=".8"/><ellipse cx="249.9" cy="206.1" rx="4.4" ry="2.2" fill="#fff" opacity=".63" transform="rotate(-25 255.3 213.2)"/></g><g><circle cx="282.8" cy="209.2" r="15.0" fill="url(#ball7)" stroke="#00000022" stroke-width=".8"/><ellipse cx="278.0" cy="202.9" rx="3.9" ry="2.0" fill="#fff" opacity=".63" transform="rotate(-25 282.8 209.2)"/></g><g><circle cx="313.0" cy="212.2" r="14.6" fill="url(#ball4)" stroke="#00000022" stroke-width=".8"/><ellipse cx="308.3" cy="206.1" rx="3.8" ry="1.9" fill="#fff" opacity=".63" transform="rotate(-25 313.0 212.2)"/></g><g><circle cx="65.6" cy="239.1" r="14.2" fill="url(#ball5)" stroke="#00000022" stroke-width=".8"/><ellipse cx="61.1" cy="233.2" rx="3.7" ry="1.8" fill="#fff" opacity=".63" transform="rotate(-25 65.6 239.1)"/></g><g><circle cx="94.8" cy="239.8" r="15.1" fill="url(#ball1)" stroke="#00000022" stroke-width=".8"/><ellipse cx="90.0" cy="233.5" rx="3.9" ry="2.0" fill="#fff" opacity=".63" transform="rotate(-25 94.8 239.8)"/></g><g><circle cx="122.5" cy="239.7" r="15.9" fill="url(#ball7)" stroke="#00000022" stroke-width=".8"/><ellipse cx="117.4" cy="233.0" rx="4.1" ry="2.1" fill="#fff" opacity=".63" transform="rotate(-25 122.5 239.7)"/></g><g><circle cx="155.3" cy="238.7" r="14.3" fill="url(#ball6)" stroke="#00000022" stroke-width=".8"/><ellipse cx="150.7" cy="232.7" rx="3.7" ry="1.9" fill="#fff" opacity=".63" transform="rotate(-25 155.3 238.7)"/></g><g><circle cx="179.2" cy="241.8" r="16.7" fill="url(#ball1)" stroke="#00000022" stroke-width=".8"/><ellipse cx="173.9" cy="234.8" rx="4.4" ry="2.2" fill="#fff" opacity=".63" transform="rotate(-25 179.2 241.8)"/></g><g><circle cx="209.3" cy="237.0" r="16.0" fill="url(#ball6)" stroke="#00000022" stroke-width=".8"/><ellipse cx="204.2" cy="230.3" rx="4.1" ry="2.1" fill="#fff" opacity=".63" transform="rotate(-25 209.3 237.0)"/></g><g><circle cx="241.1" cy="241.4" r="16.9" fill="url(#ball2)" stroke="#00000022" stroke-width=".8"/><ellipse cx="235.7" cy="234.3" rx="4.4" ry="2.2" fill="#fff" opacity=".63" transform="rotate(-25 241.1 241.4)"/></g><g><circle cx="269.5" cy="240.5" r="14.7" fill="url(#ball1)" stroke="#00000022" stroke-width=".8"/><ellipse cx="264.8" cy="234.3" rx="3.8" ry="1.9" fill="#fff" opacity=".63" transform="rotate(-25 269.5 240.5)"/></g><g><circle cx="300.2" cy="237.0" r="15.2" fill="url(#ball0)" stroke="#00000022" stroke-width=".8"/><ellipse cx="295.3" cy="230.6" rx="4.0" ry="2.0" fill="#fff" opacity=".63" transform="rotate(-25 300.2 237.0)"/></g><g><circle cx="79.1" cy="267.0" r="14.8" fill="url(#ball6)" stroke="#00000022" stroke-width=".8"/><ellipse cx="74.3" cy="260.8" rx="3.8" ry="1.9" fill="#fff" opacity=".63" transform="rotate(-25 79.1 267.0)"/></g><g><circle cx="111.1" cy="271.1" r="15.1" fill="url(#ball7)" stroke="#00000022" stroke-width=".8"/><ellipse cx="106.3" cy="264.7" rx="3.9" ry="2.0" fill="#fff" opacity=".63" transform="rotate(-25 111.1 271.1)"/></g><g><circle cx="139.1" cy="270.8" r="15.2" fill="url(#ball2)" stroke="#00000022" stroke-width=".8"/><ellipse cx="134.2" cy="264.5" rx="3.9" ry="2.0" fill="#fff" opacity=".63" transform="rotate(-25 139.1 270.8)"/></g><g><circle cx="165.7" cy="266.7" r="14.6" fill="url(#ball3)" stroke="#00000022" stroke-width=".8"/><ellipse cx="161.0" cy="260.6" rx="3.8" ry="1.9" fill="#fff" opacity=".63" transform="rotate(-25 165.7 266.7)"/></g><g><circle cx="196.4" cy="269.1" r="16.0" fill="url(#ball2)" stroke="#00000022" stroke-width=".8"/><ellipse cx="191.3" cy="262.4" rx="4.2" ry="2.1" fill="#fff" opacity=".63" transform="rotate(-25 196.4 269.1)"/></g><g><circle cx="222.2" cy="271.1" r="14.2" fill="url(#ball3)" stroke="#00000022" stroke-width=".8"/><ellipse cx="217.7" cy="265.1" rx="3.7" ry="1.8" fill="#fff" opacity=".63" transform="rotate(-25 222.2 271.1)"/></g><g><circle cx="256.7" cy="269.8" r="16.0" fill="url(#ball5)" stroke="#00000022" stroke-width=".8"/><ellipse cx="251.6" cy="263.1" rx="4.1" ry="2.1" fill="#fff" opacity=".63" transform="rotate(-25 256.7 269.8)"/></g><g><circle cx="285.6" cy="271.6" r="16.8" fill="url(#ball5)" stroke="#00000022" stroke-width=".8"/><ellipse cx="280.2" cy="264.6" rx="4.4" ry="2.2" fill="#fff" opacity=".63" transform="rotate(-25 285.6 271.6)"/></g><g><circle cx="93.7" cy="299.3" r="14.7" fill="url(#ball7)" stroke="#00000022" stroke-width=".8"/><ellipse cx="89.0" cy="293.1" rx="3.8" ry="1.9" fill="#fff" opacity=".63" transform="rotate(-25 93.7 299.3)"/></g><g><circle cx="126.5" cy="298.9" r="16.9" fill="url(#ball3)" stroke="#00000022" stroke-width=".8"/><ellipse cx="121.1" cy="291.8" rx="4.4" ry="2.2" fill="#fff" opacity=".63" transform="rotate(-25 126.5 298.9)"/></g><g><circle cx="154.0" cy="299.0" r="14.4" fill="url(#ball1)" stroke="#00000022" stroke-width=".8"/><ellipse cx="149.4" cy="293.0" rx="3.7" ry="1.9" fill="#fff" opacity=".63" transform="rotate(-25 154.0 299.0)"/></g><g><circle cx="183.0" cy="296.5" r="16.9" fill="url(#ball7)" stroke="#00000022" stroke-width=".8"/><ellipse cx="177.6" cy="289.4" rx="4.4" ry="2.2" fill="#fff" opacity=".63" transform="rotate(-25 183.0 296.5)"/></g><g><circle cx="212.3" cy="297.4" r="14.8" fill="url(#ball3)" stroke="#00000022" stroke-width=".8"/><ellipse cx="207.6" cy="291.2" rx="3.9" ry="1.9" fill="#fff" opacity=".63" transform="rotate(-25 212.3 297.4)"/></g><g><circle cx="241.4" cy="297.3" r="16.0" fill="url(#ball2)" stroke="#00000022" stroke-width=".8"/><ellipse cx="236.3" cy="290.5" rx="4.2" ry="2.1" fill="#fff" opacity=".63" transform="rotate(-25 241.4 297.3)"/></g><g><circle cx="269.8" cy="296.7" r="14.3" fill="url(#ball5)" stroke="#00000022" stroke-width=".8"/><ellipse cx="265.2" cy="290.7" rx="3.7" ry="1.9" fill="#fff" opacity=".63" transform="rotate(-25 269.8 296.7)"/></g><g><circle cx="108.4" cy="325.3" r="15.4" fill="url(#ball5)" stroke="#00000022" stroke-width=".8"/><ellipse cx="103.5" cy="318.8" rx="4.0" ry="2.0" fill="#fff" opacity=".63" transform="rotate(-25 108.4 325.3)"/></g><g><circle cx="136.1" cy="325.0" r="14.8" fill="url(#ball1)" stroke="#00000022" stroke-width=".8"/><ellipse cx="131.3" cy="318.8" rx="3.8" ry="1.9" fill="#fff" opacity=".63" transform="rotate(-25 136.1 325.0)"/></g><g><circle cx="169.4" cy="327.0" r="16.3" fill="url(#ball4)" stroke="#00000022" stroke-width=".8"/><ellipse cx="164.2" cy="320.1" rx="4.2" ry="2.1" fill="#fff" opacity=".63" transform="rotate(-25 169.4 327.0)"/></g><g><circle cx="196.9" cy="326.9" r="15.9" fill="url(#ball7)" stroke="#00000022" stroke-width=".8"/><ellipse cx="191.8" cy="320.2" rx="4.1" ry="2.1" fill="#fff" opacity=".63" transform="rotate(-25 196.9 326.9)"/></g><g><circle cx="225.0" cy="326.9" r="16.8" fill="url(#ball0)" stroke="#00000022" stroke-width=".8"/><ellipse cx="219.6" cy="319.8" rx="4.4" ry="2.2" fill="#fff" opacity=".63" transform="rotate(-25 225.0 326.9)"/></g><g><circle cx="253.0" cy="326.1" r="15.2" fill="url(#ball4)" stroke="#00000022" stroke-width=".8"/><ellipse cx="248.1" cy="319.7" rx="4.0" ry="2.0" fill="#fff" opacity=".63" transform="rotate(-25 253.0 326.1)"/></g><path d="M21 43H339V377H21Z" fill="url(#glass)"/><path d="M64 118Q82 74 132 68" fill="none" stroke="#fff" stroke-width="13" opacity=".62" stroke-linecap="round"/><path d="M47 168Q41 244 84 297" fill="none" stroke="#fff" stroke-width="6" opacity=".35" stroke-linecap="round"/><path d="M291 100Q327 174 311 231" fill="none" stroke="#fff" stroke-width="4" opacity=".42" stroke-linecap="round"/><path d="M112 103Q179 88 234 108" fill="none" stroke="#fff" stroke-width="17" opacity=".55" stroke-linecap="round"/></g>
<path d="M64 60Q77 17 180 13Q284 17 296 60Q181 33 64 60Z" fill="url(#red)" stroke="#a21423" stroke-width="1.5"/>
<path d="M89 39Q162 11 243 32" fill="none" stroke="#ffb8b9" stroke-width="4" stroke-linecap="round" opacity=".75"/>
<path d="M80 350Q180 370 280 350L284 380Q180 402 76 380Z" fill="url(#red)" stroke="#8d0b1a" stroke-width="2"/><path d="M84 357Q180 375 276 357" fill="none" stroke="#ff9f9f" stroke-opacity=".7" stroke-width="2"/>
<rect x="110" y="395" width="140" height="177" rx="8" fill="#780719" opacity=".45"/><rect x="113" y="391" width="134" height="178" rx="7" fill="url(#chrome)" stroke="#e1e7ef" stroke-width="1.5"/><rect x="119" y="398" width="122" height="164" rx="4" fill="url(#plate)" stroke="#586171"/>
<circle cx="180" cy="432" r="30" fill="#29313c" stroke="url(#chrome)" stroke-width="4"/><circle cx="180" cy="432" r="26" fill="url(#chrome)"/><rect x="156" y="426" width="48" height="12" rx="5" fill="#4b5361" stroke="#e2e8ee" stroke-width="2"/>
<ellipse cx="180" cy="482" rx="39" ry="14" fill="#939cab" stroke="#eff2f7" stroke-width="2"/><ellipse cx="180" cy="483" rx="33" ry="10" fill="#707b8a"/><path d="M152 482h56" stroke="#b8c0cd" stroke-width="1"/>
<rect x="144" y="510" width="72" height="65" rx="9" fill="url(#chrome)" stroke="#f2f6f9" stroke-width="2"/><path d="M151 539a29 25 0 0 1 58 0v23h-58Z" fill="#212630" stroke="#717c8d" stroke-width="2"/><path d="M154 548q27-10 52 0v13h-52Z" fill="#801021"/>
<path d="M147 538a33 29 0 0 1 66 0v32h-66Z" fill="#eef9ff" fill-opacity=".15" stroke="#f8fbff" stroke-opacity=".8" stroke-width="2"/>
<g fill="#e5ebf0" stroke="#778291"><circle cx="125" cy="405" r="2.5"/><circle cx="235" cy="405" r="2.5"/><circle cx="125" cy="555" r="2.5"/><circle cx="235" cy="555" r="2.5"/></g></svg>